<?xml version="1.0" encoding="utf-8"?>
<!-- Generator: Adobe Illustrator 19.0.0, SVG Export Plug-In . SVG Version: 6.00 Build 0)  -->
<svg version="1.1" id="Ebene_1" xmlns="http://www.w3.org/2000/svg" xmlns:xlink="http://www.w3.org/1999/xlink" x="0px" y="0px"
	 viewBox="-257 378 82.7 32.8" style="enable-background:new -257 378 82.7 32.8;" xml:space="preserve">
<style type="text/css">
	.st0{fill:#646464;}
</style>
<rect x="-2377.8" y="181.9" class="st0" width="3.4" height="1.7"/>
<polygon class="st0" points="-211,383.9 -212.7,383.9 -214.4,383.9 -215.8,407.4 -212.7,410.6 -209.8,407.4 "/>
<path class="st0" d="M-211.7,378.8c-0.3-0.1-1.9-0.1-2.2,0c-0.4,0.1-0.9,0.5-1,0.9c-0.1,0.5,0.4,2.2,0.4,2.2h1.7h1.7
	c0,0,0.5-1.6,0.4-2.2C-210.8,379.4-211.3,378.9-211.7,378.8z"/>
<path class="st0" d="M-243.6,389.7c-1-1.3-2.2-2.2-3.9-2.2c-1.6,0-3.2,1.3-3.2,3c0,4.4,10.3,2.5,10.3,11.3c0,5.2-3.2,8.9-8.5,8.9
	c-3.6,0-6.2-2.1-8.1-5.1l3.2-3.2c0.7,2.1,2.5,3.8,4.7,3.8c2.1,0,3.3-1.8,3.3-3.8c0-2.7-2.5-3.5-4.6-4.2c-3.3-1.3-5.8-3-5.8-7.1
	c0-4.3,3.2-7.8,7.6-7.8c2.3,0,5.5,1.2,7.1,3L-243.6,389.7z"/>
<path class="st0" d="M-237.8,383.9h5.1v14.5c0,3.2,0.3,7.7,4.7,7.7c4.3,0,4.7-4.6,4.7-7.7v-14.5h5.1v15.6c0,6.4-2.7,11.2-9.7,11.2
	c-7,0-9.7-4.8-9.7-11.2v-15.6H-237.8z"/>
<path class="st0" d="M-197.3,409.9h-5.1v-21.7h-5.2v-4.5h15.6v4.5h-5.2L-197.3,409.9L-197.3,409.9z"/>
<path class="st0" d="M-177.4,389.7c-1-1.3-2.2-2.2-3.9-2.2c-1.6,0-3.2,1.3-3.2,3c0,4.4,10.3,2.5,10.3,11.3c0,5.2-3.2,8.9-8.5,8.9
	c-3.6,0-6.2-2.1-8.1-5.1l3.2-3.2c0.7,2.1,2.5,3.8,4.7,3.8c2.1,0,3.3-1.8,3.3-3.8c0-2.7-2.5-3.5-4.6-4.2c-3.3-1.3-5.8-3-5.8-7.1
	c0-4.3,3.2-7.8,7.6-7.8c2.3,0,5.5,1.2,7.1,3L-177.4,389.7z"/>
</svg>
