<?xml version="1.0" encoding="utf-8"?>
<svg version="1.1" id="Ebene_1" xmlns="http://www.w3.org/2000/svg" xmlns:xlink="http://www.w3.org/1999/xlink" x="0px" y="0px"
	 viewBox="-240 371.7 95.6 36.8" style="enable-background:new -240 371.7 95.6 36.8;" xml:space="preserve">
<style type="text/css">
	.st0{fill:#646464;}
</style>
<rect x="-2120.8" y="-196.3" class="st0" width="3.4" height="1.7"/>
<polygon class="st0" points="-186.9,378.2 -188.8,378.2 -190.7,378.2 -192.2,404.4 -188.8,408 -185.5,404.4 "/>
<path class="st0" d="M-187.6,372.5c-0.3-0.1-2.1-0.1-2.4,0c-0.4,0.1-1,0.6-1.1,1c-0.1,0.6,0.4,2.4,0.4,2.4h1.9h1.9
	c0,0,0.6-1.8,0.4-2.4C-186.6,373.1-187.2,372.6-187.6,372.5z"/>
<path class="st0" d="M-223.2,384.6c-1.1-1.5-2.5-2.4-4.4-2.4c-1.8,0-3.6,1.4-3.6,3.3c0,4.9,11.5,2.8,11.5,12.6
	c0,5.8-3.6,9.9-9.5,9.9c-4,0-6.9-2.3-9-5.7l3.6-3.6c0.8,2.3,2.8,4.2,5.2,4.2c2.3,0,3.7-2,3.7-4.2c0-3-2.8-3.9-5.1-4.7
	c-3.7-1.5-6.5-3.4-6.5-7.9c0-4.8,3.6-8.7,8.5-8.7c2.6,0,6.1,1.3,7.9,3.3L-223.2,384.6z"/>
<path class="st0" d="M-216.8,378.2h5.7v16.2c0,3.6,0.3,8.6,5.2,8.6c4.8,0,5.2-5.1,5.2-8.6v-16.2h5.7v17.4c0,7.1-3,12.5-10.8,12.5
	s-10.8-5.4-10.8-12.5v-17.4H-216.8z"/>
<path class="st0" d="M-171.6,407.2h-5.7V383h-5.8v-5h17.4v5h-5.8L-171.6,407.2L-171.6,407.2z"/>
<path class="st0" d="M-149.4,384.6c-1.1-1.5-2.5-2.4-4.4-2.4c-1.8,0-3.6,1.4-3.6,3.3c0,4.9,11.5,2.8,11.5,12.6
	c0,5.8-3.6,9.9-9.5,9.9c-4,0-6.9-2.3-9-5.7l3.6-3.6c0.8,2.3,2.8,4.2,5.2,4.2c2.3,0,3.7-2,3.7-4.2c0-3-2.8-3.9-5.1-4.7
	c-3.7-1.5-6.5-3.4-6.5-7.9c0-4.8,3.6-8.7,8.5-8.7c2.6,0,6.1,1.3,7.9,3.3L-149.4,384.6z"/>
</svg>
