<?xml version="1.0" encoding="utf-8"?>
<svg version="1.1" id="Ebene_1" xmlns="http://www.w3.org/2000/svg" xmlns:xlink="http://www.w3.org/1999/xlink" x="0px" y="0px"
	 viewBox="-182 349.2 130.6 50.3" style="enable-background:new -182 349.2 130.6 50.3;" xml:space="preserve">
<style type="text/css">
	.st0{fill:#646464;}
</style>
<rect x="-1880.8" y="-568" class="st0" width="3.4" height="1.7"/>
<polygon class="st0" points="-110.8,357.9 -113.4,357.9 -116.1,357.9 -118.1,393.9 -113.4,398.8 -108.9,393.9 "/>
<path class="st0" d="M-111.8,350.1c-0.4-0.2-2.9-0.2-3.3,0c-0.6,0.2-1.4,0.8-1.5,1.4c-0.2,0.8,0.6,3.3,0.6,3.3h2.6h2.6
	c0,0,0.8-2.5,0.6-3.3C-110.4,351-111.2,350.3-111.8,350.1z"/>
<path class="st0" d="M-160.6,366.7c-1.5-2-3.4-3.3-6-3.3c-2.5,0-4.9,1.9-4.9,4.5c0,6.7,15.8,3.9,15.8,17.3c0,8-5,13.6-13.1,13.6
	c-5.5,0-9.5-3.2-12.3-7.8l5-4.9c1.1,3.1,3.9,5.8,7.2,5.8c3.2,0,5.1-2.7,5.1-5.8c0-4.1-3.8-5.3-7-6.5c-5.1-2.1-8.9-4.7-8.9-10.9
	c0-6.6,4.9-11.9,11.6-11.9c3.6,0,8.4,1.8,10.9,4.5L-160.6,366.7z"/>
<path class="st0" d="M-151.9,357.9h7.8v22.3c0,4.9,0.4,11.8,7.1,11.8c6.6,0,7.1-7,7.1-11.8v-22.3h7.8v23.9c0,9.7-4.1,17.1-14.8,17.1
	c-10.7,0-14.8-7.4-14.8-17.1V357.9L-151.9,357.9z"/>
<path class="st0" d="M-89.8,397.8h-7.8v-33.2h-8v-6.8h23.9v6.8h-8L-89.8,397.8L-89.8,397.8z"/>
<path class="st0" d="M-59.3,366.7c-1.5-2-3.4-3.3-6-3.3c-2.5,0-4.9,1.9-4.9,4.5c0,6.7,15.8,3.9,15.8,17.3c0,8-5,13.6-13.1,13.6
	c-5.5,0-9.5-3.2-12.3-7.8l5-4.9c1.1,3.1,3.9,5.8,7.2,5.8c3.2,0,5.1-2.7,5.1-5.8c0-4.1-3.8-5.3-7-6.5c-5.1-2.1-8.9-4.7-8.9-10.9
	c0-6.6,4.9-11.9,11.6-11.9c3.6,0,8.4,1.8,10.9,4.5L-59.3,366.7z"/>
</svg>
