<svg xmlns="http://www.w3.org/2000/svg" width="768" height="296" viewBox="0 0 767.7 295.8"><style>.st1{fill:#646464}</style><path class="st1" d="M-1776.1-1165.8h3.4v1.7h-3.4zM425.3 47.4h-31.9l-12 218.2 27.9 30.2 28-30.2zM419.4.6c-2.4-.8-17.7-.8-20.1 0-3.7 1.1-8.3 5-9.4 8.8-1.4 5.1 3.4 20.2 3.4 20.2h32s4.8-15.1 3.4-20.2c-1-3.9-5.6-7.7-9.3-8.8zM123.9 100.7c-9-12.2-20.5-19.9-36.3-19.9-15.1 0-29.5 11.6-29.5 27.3 0 40.8 95.9 23.7 95.9 104.9 0 48.5-30.2 82.8-79.6 82.8-33.4 0-57.8-19.3-74.4-47.2l30.5-29.8c6.4 18.6 23.4 35.3 43.6 35.3 19.3 0 31.1-16.4 31.1-35 0-25-23.1-32.1-42-39.5C32.1 166.8 9.3 151 9.3 113.5 9.3 73.4 39.1 41 79.9 41c21.5 0 51.3 10.6 66.1 27l-22.1 32.7zM176.4 47.4h47.2v135.4c0 29.8 2.6 71.9 42.7 71.9s42.7-42 42.7-71.9V47.4h47.2v144.7c0 59-25 103.6-89.8 103.6s-89.8-44.6-89.8-103.6V47.4zM553 289.4h-47.2V88.5H457V47.4h144.7v41.1H553v200.9zM737.6 100.7c-9-12.2-20.5-19.9-36.3-19.9-15.1 0-29.5 11.6-29.5 27.3 0 40.8 95.9 23.7 95.9 104.9 0 48.5-30.2 82.8-79.6 82.8-33.4 0-57.8-19.3-74.4-47.2l30.5-29.8c6.4 18.6 23.4 35.3 43.6 35.3 19.3 0 31.1-16.4 31.1-35 0-25-23.1-32.1-42-39.5-31.1-12.8-53.9-28.6-53.9-66.1 0-40.1 29.8-72.5 70.6-72.5 21.5 0 51.3 10.6 66.1 27l-22.1 32.7z"/></svg>