<?xml version="1.0" encoding="utf-8"?>
<svg version="1.1" id="Ebene_1" xmlns="http://www.w3.org/2000/svg" xmlns:xlink="http://www.w3.org/1999/xlink" x="0px" y="0px"
	 viewBox="78 249 246 94.8" style="enable-background:new 78 249 246 94.8;" xml:space="preserve">
<style type="text/css">
	.st0{fill:#646464;}
</style>
<rect x="-1698.8" y="-917.2" class="st0" width="3.4" height="1.7"/>
<polygon class="st0" points="214.3,264.2 209.2,264.2 204.1,264.2 200.2,334.2 209.2,343.8 218.1,334.2 "/>
<path class="st0" d="M212.4,249.2c-0.8-0.3-5.7-0.3-6.4,0c-1.2,0.4-2.7,1.6-3,2.8c-0.4,1.6,1.1,6.5,1.1,6.5h5.1h5.1
	c0,0,1.5-4.8,1.1-6.5C215.1,250.8,213.6,249.6,212.4,249.2z"/>
<path class="st0" d="M117.7,281.3c-2.9-3.9-6.6-6.4-11.6-6.4c-4.8,0-9.5,3.7-9.5,8.7c0,13.1,30.7,7.6,30.7,33.6
	c0,15.5-9.7,26.5-25.5,26.5c-10.7,0-18.5-6.2-23.8-15.1l9.8-9.5c2.1,6,7.5,11.3,14,11.3c6.2,0,10-5.3,10-11.2
	c0-8-7.4-10.3-13.5-12.7c-10-4.1-17.3-9.2-17.3-21.2c0-12.8,9.5-23.2,22.6-23.2c6.9,0,16.4,3.4,21.2,8.7L117.7,281.3z"/>
<path class="st0" d="M134.5,264.2h15.1v43.4c0,9.5,0.8,23,13.7,23c12.8,0,13.7-13.5,13.7-23v-43.4h15.1v46.4
	c0,18.9-8,33.2-28.8,33.2s-28.8-14.3-28.8-33.2L134.5,264.2L134.5,264.2z"/>
<path class="st0" d="M255.2,341.8h-15.1v-64.4h-15.6v-13.2h46.4v13.2h-15.6V341.8z"/>
<path class="st0" d="M314.4,281.3c-2.9-3.9-6.6-6.4-11.6-6.4c-4.8,0-9.5,3.7-9.5,8.7c0,13.1,30.7,7.6,30.7,33.6
	c0,15.5-9.7,26.5-25.5,26.5c-10.7,0-18.5-6.2-23.8-15.1l9.8-9.5c2.1,6,7.5,11.3,14,11.3c6.2,0,10-5.3,10-11.2
	c0-8-7.4-10.3-13.5-12.7c-10-4.1-17.3-9.2-17.3-21.2c0-12.8,9.5-23.2,22.6-23.2c6.9,0,16.4,3.4,21.2,8.7L314.4,281.3z"/>
</svg>
