<svg style="position: absolute; width: 0; height: 0;" width="0" height="0" version="1.1" xmlns="http://www.w3.org/2000/svg" xmlns:xlink="http://www.w3.org/1999/xlink">
<defs>
<symbol id="icon-bulb" viewBox="0 0 1024 1024">
<title>bulb</title>
<path class="path1" d="M512 0c-194.432 0-352 157.568-352 352 0 128.992 118.016 265.696 160.992 385.76 64.096 179.040 56.992 286.24 191.008 286.24 136 0 126.88-106.688 191.008-285.504 43.104-120.32 160.992-258.496 160.992-386.496 0-194.432-157.632-352-352-352zM594.944 869.632l-158.656 19.808c-5.664-16.384-11.744-35.552-19.136-60.576-0.096-0.32-0.224-0.672-0.288-0.992l198.016-24.736c-2.816 9.44-5.824 19.36-8.448 28.256-4.192 14.368-7.936 26.848-11.488 38.24zM407.552 797.056c-5.824-19.264-12.384-39.552-19.68-61.056h248.512c-3.936 11.488-7.872 23.008-11.264 33.888l-217.568 27.168zM512 960c-32.416 0-47.328-3.744-63.904-40l135.616-16.992c-19.648 52.928-33.952 56.992-71.712 56.992zM661.504 672h-298.656c-15.936-34.56-35.072-69.12-53.952-102.944-41.76-74.72-84.896-152-84.896-217.056 0-158.816 129.184-288 288-288s288 129.184 288 288c0 64.576-43.2 142.272-84.992 217.44-18.688 33.696-37.696 68.192-53.504 102.56zM512 160c8.8 0 16 7.168 16 16s-7.168 16-16 16c-88.224 0-160 71.776-160 160 0 8.832-7.168 16-16 16s-16-7.168-16-16c0-105.888 86.112-192 192-192z"></path>
</symbol>
<symbol id="icon-address-book" viewBox="0 0 1024 1024">
<title>address-book</title>
<path class="path1" d="M192 0v1024h768v-1024h-768zM576 256.33c70.51 0 127.67 57.16 127.67 127.67s-57.16 127.67-127.67 127.67-127.67-57.16-127.67-127.67 57.16-127.67 127.67-127.67v0zM768 768h-384v-64c0-70.696 57.306-128 128-128v0h128c70.696 0 128 57.304 128 128v64z"></path>
<path class="path2" d="M64 64h96v192h-96v-192z"></path>
<path class="path3" d="M64 320h96v192h-96v-192z"></path>
<path class="path4" d="M64 576h96v192h-96v-192z"></path>
<path class="path5" d="M64 832h96v192h-96v-192z"></path>
</symbol>

<symbol id="icon-envelop" viewBox="0 0 1024 1024">
<title>envelop</title>
<path class="path1" d="M928 128h-832c-52.8 0-96 43.2-96 96v640c0 52.8 43.2 96 96 96h832c52.8 0 96-43.2 96-96v-640c0-52.8-43.2-96-96-96zM398.74 550.372l-270.74 210.892v-501.642l270.74 290.75zM176.38 256h671.24l-335.62 252-335.62-252zM409.288 561.698l102.712 110.302 102.71-110.302 210.554 270.302h-626.528l210.552-270.302zM625.26 550.372l270.74-290.75v501.642l-270.74-210.892z"></path>
</symbol>
<symbol id="icon-location2" viewBox="0 0 1024 1024">
<title>location2</title>
<path class="path1" d="M512 0c-176.732 0-320 143.268-320 320 0 320 320 704 320 704s320-384 320-704c0-176.732-143.27-320-320-320zM512 516c-108.248 0-196-87.752-196-196s87.752-196 196-196 196 87.752 196 196-87.752 196-196 196zM388 320c0-68.483 55.517-124 124-124s124 55.517 124 124c0 68.483-55.517 124-124 124s-124-55.517-124-124z"></path>
</symbol>
<symbol id="icon-display" viewBox="0 0 1024 1024">
<title>display</title>
<path class="path1" d="M0 64v640h1024v-640h-1024zM960 640h-896v-512h896v512zM672 768h-320l-32 128-64 64h512l-64-64z"></path>
</symbol>
<symbol id="icon-mobile" viewBox="0 0 1024 1024">
<title>mobile</title>
<path class="path1" d="M736 0h-448c-52.8 0-96 43.2-96 96v832c0 52.8 43.2 96 96 96h448c52.8 0 96-43.2 96-96v-832c0-52.8-43.2-96-96-96zM384 48h256v32h-256v-32zM512 960c-35.346 0-64-28.654-64-64s28.654-64 64-64 64 28.654 64 64-28.654 64-64 64zM768 768h-512v-640h512v640z"></path>
</symbol>
<symbol id="icon-mobile2" viewBox="0 0 1024 1024">
<title>mobile2</title>
<path class="path1" d="M768 0h-576c-35.2 0-64 28.798-64 64v896c0 35.2 28.798 64 64 64h576c35.2 0 64-28.8 64-64v-896c0-35.202-28.8-64-64-64zM480 977.782c-27.492 0-49.782-22.29-49.782-49.782s22.29-49.782 49.782-49.782 49.782 22.29 49.782 49.782-22.29 49.782-49.782 49.782zM768 832h-576v-704h576v704z"></path>
</symbol>
<symbol id="icon-tablet" viewBox="0 0 1024 1024">
<title>tablet</title>
<path class="path1" d="M800 0h-640c-52.8 0-96 43.2-96 96v832c0 52.8 43.2 96 96 96h640c52.8 0 96-43.2 96-96v-832c0-52.8-43.2-96-96-96zM480 992c-17.672 0-32-14.326-32-32s14.328-32 32-32 32 14.326 32 32-14.328 32-32 32zM768 896h-576v-768h576v768z"></path>
</symbol>
<symbol id="icon-tv" viewBox="0 0 1024 1024">
<title>tv</title>
<path class="path1" d="M981.188 288.108c-88.808-12.768-183.382-22.016-282.076-27.22l164.888-164.888-64-64-224.558 224.556c-21.006-0.368-42.156-0.556-63.442-0.556v0l-256-256-64 64 194.196 194.196c-120.922 4.242-236.338 14.524-343.386 29.912-27.532 107.726-42.81 226.752-42.81 351.892s15.278 244.166 42.804 351.89c143.642 20.652 302.34 32.11 469.196 32.11s325.55-11.458 469.188-32.11c27.534-107.724 42.812-226.75 42.812-351.89s-15.278-244.166-42.812-351.892zM863.892 874.594c-107.73 13.766-226.75 21.406-351.892 21.406s-244.166-7.64-351.892-21.406c-20.648-71.816-32.108-151.166-32.108-234.594 0-83.43 11.458-162.78 32.108-234.596 107.726-13.766 226.75-21.404 351.892-21.404 125.136 0 244.162 7.638 351.886 21.404 20.656 71.816 32.114 151.166 32.114 234.596 0 83.428-11.458 162.778-32.108 234.594z"></path>
</symbol>
<symbol id="icon-database" viewBox="0 0 1024 1024">
<title>database</title>
<path class="path1" d="M512 0c-282.77 0-512 71.634-512 160v128c0 88.366 229.23 160 512 160s512-71.634 512-160v-128c0-88.366-229.23-160-512-160z"></path>
<path class="path2" d="M512 544c-282.77 0-512-71.634-512-160v192c0 88.366 229.23 160 512 160s512-71.634 512-160v-192c0 88.366-229.23 160-512 160z"></path>
<path class="path3" d="M512 832c-282.77 0-512-71.634-512-160v192c0 88.366 229.23 160 512 160s512-71.634 512-160v-192c0 88.366-229.23 160-512 160z"></path>
</symbol>
<symbol id="icon-user-tie" viewBox="0 0 1024 1024">
<title>user-tie</title>
<path class="path1" d="M320 192c0-106.039 85.961-192 192-192s192 85.961 192 192c0 106.039-85.961 192-192 192s-192-85.961-192-192zM768.078 448h-35.424l-199.104 404.244 74.45-372.244-96-96-96 96 74.45 372.244-199.102-404.244h-35.424c-127.924 0-127.924 85.986-127.924 192v320h768v-320c0-106.014 0-192-127.922-192z"></path>
</symbol>
<symbol id="icon-lock" viewBox="0 0 1024 1024">
<title>lock</title>
<path class="path1" d="M592 448h-16v-192c0-105.87-86.13-192-192-192h-128c-105.87 0-192 86.13-192 192v192h-16c-26.4 0-48 21.6-48 48v480c0 26.4 21.6 48 48 48h544c26.4 0 48-21.6 48-48v-480c0-26.4-21.6-48-48-48zM192 256c0-35.29 28.71-64 64-64h128c35.29 0 64 28.71 64 64v192h-256v-192z"></path>
</symbol>
<symbol id="icon-wrench" viewBox="0 0 1024 1024">
<title>wrench</title>
<path class="path1" d="M1002.934 817.876l-460.552-394.76c21.448-40.298 33.618-86.282 33.618-135.116 0-159.058-128.942-288-288-288-29.094 0-57.172 4.332-83.646 12.354l166.39 166.39c24.89 24.89 24.89 65.62 0 90.51l-101.49 101.49c-24.89 24.89-65.62 24.89-90.51 0l-166.39-166.39c-8.022 26.474-12.354 54.552-12.354 83.646 0 159.058 128.942 288 288 288 48.834 0 94.818-12.17 135.116-33.62l394.76 460.552c22.908 26.724 62.016 28.226 86.904 3.338l101.492-101.492c24.888-24.888 23.386-63.994-3.338-86.902z"></path>
</symbol>
<symbol id="icon-equalizer" viewBox="0 0 1024 1024">
<title>equalizer</title>
<path class="path1" d="M448 128v-16c0-26.4-21.6-48-48-48h-160c-26.4 0-48 21.6-48 48v16h-192v128h192v16c0 26.4 21.6 48 48 48h160c26.4 0 48-21.6 48-48v-16h576v-128h-576zM256 256v-128h128v128h-128zM832 432c0-26.4-21.6-48-48-48h-160c-26.4 0-48 21.6-48 48v16h-576v128h576v16c0 26.4 21.6 48 48 48h160c26.4 0 48-21.6 48-48v-16h192v-128h-192v-16zM640 576v-128h128v128h-128zM448 752c0-26.4-21.6-48-48-48h-160c-26.4 0-48 21.6-48 48v16h-192v128h192v16c0 26.4 21.6 48 48 48h160c26.4 0 48-21.6 48-48v-16h576v-128h-576v-16zM256 896v-128h128v128h-128z"></path>
</symbol>
<symbol id="icon-equalizer2" viewBox="0 0 1024 1024">
<title>equalizer2</title>
<path class="path1" d="M896 448h16c26.4 0 48-21.6 48-48v-160c0-26.4-21.6-48-48-48h-16v-192h-128v192h-16c-26.4 0-48 21.6-48 48v160c0 26.4 21.6 48 48 48h16v576h128v-576zM768 256h128v128h-128v-128zM592 832c26.4 0 48-21.6 48-48v-160c0-26.4-21.6-48-48-48h-16v-576h-128v576h-16c-26.4 0-48 21.6-48 48v160c0 26.4 21.6 48 48 48h16v192h128v-192h16zM448 640h128v128h-128v-128zM272 448c26.4 0 48-21.6 48-48v-160c0-26.4-21.6-48-48-48h-16v-192h-128v192h-16c-26.4 0-48 21.6-48 48v160c0 26.4 21.6 48 48 48h16v576h128v-576h16zM128 256h128v128h-128v-128z"></path>
</symbol>
<symbol id="icon-cog" viewBox="0 0 1024 1024">
<title>cog</title>
<path class="path1" d="M933.79 610.25c-53.726-93.054-21.416-212.304 72.152-266.488l-100.626-174.292c-28.75 16.854-62.176 26.518-97.846 26.518-107.536 0-194.708-87.746-194.708-195.99h-201.258c0.266 33.41-8.074 67.282-25.958 98.252-53.724 93.056-173.156 124.702-266.862 70.758l-100.624 174.292c28.97 16.472 54.050 40.588 71.886 71.478 53.638 92.908 21.512 211.92-71.708 266.224l100.626 174.292c28.65-16.696 61.916-26.254 97.4-26.254 107.196 0 194.144 87.192 194.7 194.958h201.254c-0.086-33.074 8.272-66.57 25.966-97.218 53.636-92.906 172.776-124.594 266.414-71.012l100.626-174.29c-28.78-16.466-53.692-40.498-71.434-71.228zM512 719.332c-114.508 0-207.336-92.824-207.336-207.334 0-114.508 92.826-207.334 207.336-207.334 114.508 0 207.332 92.826 207.332 207.334-0.002 114.51-92.824 207.334-207.332 207.334z"></path>
</symbol>
<symbol id="icon-cogs" viewBox="0 0 1024 1024">
<title>cogs</title>
<path class="path1" d="M363.722 722.052l41.298-57.816-45.254-45.256-57.818 41.296c-10.722-5.994-22.204-10.774-34.266-14.192l-11.682-70.084h-64l-11.68 70.086c-12.062 3.418-23.544 8.198-34.266 14.192l-57.818-41.298-45.256 45.256 41.298 57.816c-5.994 10.72-10.774 22.206-14.192 34.266l-70.086 11.682v64l70.086 11.682c3.418 12.060 8.198 23.544 14.192 34.266l-41.298 57.816 45.254 45.256 57.818-41.296c10.722 5.994 22.204 10.774 34.266 14.192l11.682 70.084h64l11.68-70.086c12.062-3.418 23.544-8.198 34.266-14.192l57.818 41.296 45.254-45.256-41.298-57.816c5.994-10.72 10.774-22.206 14.192-34.266l70.088-11.68v-64l-70.086-11.682c-3.418-12.060-8.198-23.544-14.192-34.266zM224 864c-35.348 0-64-28.654-64-64s28.652-64 64-64 64 28.654 64 64-28.652 64-64 64zM1024 384v-64l-67.382-12.25c-1.242-8.046-2.832-15.978-4.724-23.79l57.558-37.1-24.492-59.128-66.944 14.468c-4.214-6.91-8.726-13.62-13.492-20.13l39.006-56.342-45.256-45.254-56.342 39.006c-6.512-4.766-13.22-9.276-20.13-13.494l14.468-66.944-59.128-24.494-37.1 57.558c-7.812-1.892-15.744-3.482-23.79-4.724l-12.252-67.382h-64l-12.252 67.382c-8.046 1.242-15.976 2.832-23.79 4.724l-37.098-57.558-59.128 24.492 14.468 66.944c-6.91 4.216-13.62 8.728-20.13 13.494l-56.342-39.006-45.254 45.254 39.006 56.342c-4.766 6.51-9.278 13.22-13.494 20.13l-66.944-14.468-24.492 59.128 57.558 37.1c-1.892 7.812-3.482 15.742-4.724 23.79l-67.384 12.252v64l67.382 12.25c1.242 8.046 2.832 15.978 4.724 23.79l-57.558 37.1 24.492 59.128 66.944-14.468c4.216 6.91 8.728 13.618 13.494 20.13l-39.006 56.342 45.254 45.256 56.342-39.006c6.51 4.766 13.22 9.276 20.13 13.492l-14.468 66.944 59.128 24.492 37.102-57.558c7.81 1.892 15.742 3.482 23.788 4.724l12.252 67.384h64l12.252-67.382c8.044-1.242 15.976-2.832 23.79-4.724l37.1 57.558 59.128-24.492-14.468-66.944c6.91-4.216 13.62-8.726 20.13-13.492l56.342 39.006 45.256-45.256-39.006-56.342c4.766-6.512 9.276-13.22 13.492-20.13l66.944 14.468 24.492-59.13-57.558-37.1c1.892-7.812 3.482-15.742 4.724-23.79l67.382-12.25zM672 491.2c-76.878 0-139.2-62.322-139.2-139.2s62.32-139.2 139.2-139.2 139.2 62.322 139.2 139.2c0 76.878-62.32 139.2-139.2 139.2z"></path>
</symbol>
<symbol id="icon-stats-dots" viewBox="0 0 1024 1024">
<title>stats-dots</title>
<path class="path1" d="M128 896h896v128h-1024v-1024h128zM288 832c-53.020 0-96-42.98-96-96s42.98-96 96-96c2.828 0 5.622 0.148 8.388 0.386l103.192-171.986c-9.84-15.070-15.58-33.062-15.58-52.402 0-53.020 42.98-96 96-96s96 42.98 96 96c0 19.342-5.74 37.332-15.58 52.402l103.192 171.986c2.766-0.238 5.56-0.386 8.388-0.386 2.136 0 4.248 0.094 6.35 0.23l170.356-298.122c-10.536-15.408-16.706-34.036-16.706-54.11 0-53.020 42.98-96 96-96s96 42.98 96 96c0 53.020-42.98 96-96 96-2.14 0-4.248-0.094-6.35-0.232l-170.356 298.124c10.536 15.406 16.706 34.036 16.706 54.11 0 53.020-42.98 96-96 96s-96-42.98-96-96c0-19.34 5.74-37.332 15.578-52.402l-103.19-171.984c-2.766 0.238-5.56 0.386-8.388 0.386s-5.622-0.146-8.388-0.386l-103.192 171.986c9.84 15.068 15.58 33.060 15.58 52.4 0 53.020-42.98 96-96 96z"></path>
</symbol>
<symbol id="icon-clipboard" viewBox="0 0 1024 1024">
<title>clipboard</title>
<path class="path1" d="M928 128h-288c0-70.692-57.306-128-128-128-70.692 0-128 57.308-128 128h-288c-17.672 0-32 14.328-32 32v832c0 17.674 14.328 32 32 32h832c17.674 0 32-14.326 32-32v-832c0-17.672-14.326-32-32-32zM512 64c35.346 0 64 28.654 64 64s-28.654 64-64 64c-35.346 0-64-28.654-64-64s28.654-64 64-64zM896 960h-768v-768h128v96c0 17.672 14.328 32 32 32h448c17.674 0 32-14.328 32-32v-96h128v768z"></path>
<path class="path2" d="M448 858.51l-205.254-237.254 58.508-58.51 146.746 114.744 274.742-242.744 58.514 58.508z"></path>
</symbol>
<symbol id="icon-sphere" viewBox="0 0 1024 1024">
<title>sphere</title>
<path class="path1" d="M480 64c-265.096 0-480 214.904-480 480 0 265.098 214.904 480 480 480 265.098 0 480-214.902 480-480 0-265.096-214.902-480-480-480zM751.59 704c8.58-40.454 13.996-83.392 15.758-128h127.446c-3.336 44.196-13.624 87.114-30.68 128h-112.524zM208.41 384c-8.58 40.454-13.996 83.392-15.758 128h-127.444c3.336-44.194 13.622-87.114 30.678-128h112.524zM686.036 384c9.614 40.962 15.398 83.854 17.28 128h-191.316v-128h174.036zM512 320v-187.338c14.59 4.246 29.044 11.37 43.228 21.37 26.582 18.74 52.012 47.608 73.54 83.486 14.882 24.802 27.752 52.416 38.496 82.484h-155.264zM331.232 237.516c21.528-35.878 46.956-64.748 73.54-83.486 14.182-10 28.638-17.124 43.228-21.37v187.34h-155.264c10.746-30.066 23.616-57.68 38.496-82.484zM448 384v128h-191.314c1.88-44.146 7.666-87.038 17.278-128h174.036zM95.888 704c-17.056-40.886-27.342-83.804-30.678-128h127.444c1.762 44.608 7.178 87.546 15.758 128h-112.524zM256.686 576h191.314v128h-174.036c-9.612-40.96-15.398-83.854-17.278-128zM448 768v187.34c-14.588-4.246-29.044-11.372-43.228-21.37-26.584-18.74-52.014-47.61-73.54-83.486-14.882-24.804-27.75-52.418-38.498-82.484h155.266zM628.768 850.484c-21.528 35.876-46.958 64.746-73.54 83.486-14.184 9.998-28.638 17.124-43.228 21.37v-187.34h155.266c-10.746 30.066-23.616 57.68-38.498 82.484zM512 704v-128h191.314c-1.88 44.146-7.666 87.040-17.28 128h-174.034zM767.348 512c-1.762-44.608-7.178-87.546-15.758-128h112.524c17.056 40.886 27.344 83.806 30.68 128h-127.446zM830.658 320h-95.9c-18.638-58.762-44.376-110.294-75.316-151.428 42.536 20.34 81.058 47.616 114.714 81.272 21.48 21.478 40.362 44.938 56.502 70.156zM185.844 249.844c33.658-33.658 72.18-60.932 114.714-81.272-30.942 41.134-56.676 92.666-75.316 151.428h-95.898c16.138-25.218 35.022-48.678 56.5-70.156zM129.344 768h95.898c18.64 58.762 44.376 110.294 75.318 151.43-42.536-20.34-81.058-47.616-114.714-81.274-21.48-21.478-40.364-44.938-56.502-70.156zM774.156 838.156c-33.656 33.658-72.18 60.934-114.714 81.274 30.942-41.134 56.678-92.668 75.316-151.43h95.9c-16.14 25.218-35.022 48.678-56.502 70.156z"></path>
</symbol>
<symbol id="icon-flag" viewBox="0 0 1024 1024">
<title>flag</title>
<path class="path1" d="M0 0h128v1024h-128v-1024z"></path>
<path class="path2" d="M832 643.002c82.624 0 154.57-19.984 192-49.5v-512c-37.43 29.518-109.376 49.502-192 49.502s-154.57-19.984-192-49.502v512c37.43 29.516 109.376 49.5 192 49.5z"></path>
<path class="path3" d="M608 32.528c-46.906-19.94-115.52-32.528-192-32.528-96.396 0-180.334 19.984-224 49.502v512c43.666-29.518 127.604-49.502 224-49.502 76.48 0 145.094 12.588 192 32.528v-512z"></path>
</symbol>
<symbol id="icon-checkmark" viewBox="0 0 1024 1024">
<title>checkmark</title>
<path class="path1" d="M864 128l-480 480-224-224-160 160 384 384 640-640z"></path>
</symbol>
<symbol id="icon-checkmark2" viewBox="0 0 1024 1024">
<title>checkmark2</title>
<path class="path1" d="M397.434 917.696l-397.868-391.6 197.378-194.27 200.49 197.332 429.62-422.852 197.378 194.27-626.998 617.12zM107.912 526.096l289.524 284.962 518.656-510.482-89.036-87.632-429.62 422.852-200.49-197.334-89.034 87.634z"></path>
</symbol>
<symbol id="icon-facebook" viewBox="0 0 1024 1024">
<title>facebook</title>
<path class="path1" d="M608 192h160v-192h-160c-123.514 0-224 100.486-224 224v96h-128v192h128v512h192v-512h160l32-192h-192v-96c0-17.346 14.654-32 32-32z"></path>
</symbol>
<symbol id="icon-facebook2" viewBox="0 0 1024 1024">
<title>facebook2</title>
<path class="path1" d="M928 0h-832c-52.8 0-96 43.2-96 96v832c0 52.8 43.2 96 96 96h416v-448h-128v-128h128v-64c0-105.8 86.2-192 192-192h128v128h-128c-35.2 0-64 28.8-64 64v64h192l-32 128h-160v448h288c52.8 0 96-43.2 96-96v-832c0-52.8-43.2-96-96-96z"></path>
</symbol>
<symbol id="icon-twitter" viewBox="0 0 1024 1024">
<title>twitter</title>
<path class="path1" d="M1024 226.4c-37.6 16.8-78.2 28-120.6 33 43.4-26 76.6-67.2 92.4-116.2-40.6 24-85.6 41.6-133.4 51-38.4-40.8-93-66.2-153.4-66.2-116 0-210 94-210 210 0 16.4 1.8 32.4 5.4 47.8-174.6-8.8-329.4-92.4-433-219.6-18 31-28.4 67.2-28.4 105.6 0 72.8 37 137.2 93.4 174.8-34.4-1-66.8-10.6-95.2-26.2 0 0.8 0 1.8 0 2.6 0 101.8 72.4 186.8 168.6 206-17.6 4.8-36.2 7.4-55.4 7.4-13.6 0-26.6-1.4-39.6-3.8 26.8 83.4 104.4 144.2 196.2 146-72 56.4-162.4 90-261 90-17 0-33.6-1-50.2-3 93.2 59.8 203.6 94.4 322.2 94.4 386.4 0 597.8-320.2 597.8-597.8 0-9.2-0.2-18.2-0.6-27.2 41-29.4 76.6-66.4 104.8-108.6z"></path>
</symbol>
<symbol id="icon-github" viewBox="0 0 1024 1024">
<title>github</title>
<path class="path1" d="M512.008 12.642c-282.738 0-512.008 229.218-512.008 511.998 0 226.214 146.704 418.132 350.136 485.836 25.586 4.738 34.992-11.11 34.992-24.632 0-12.204-0.48-52.542-0.696-95.324-142.448 30.976-172.504-60.41-172.504-60.41-23.282-59.176-56.848-74.916-56.848-74.916-46.452-31.778 3.51-31.124 3.51-31.124 51.4 3.61 78.476 52.766 78.476 52.766 45.672 78.27 119.776 55.64 149.004 42.558 4.588-33.086 17.852-55.68 32.506-68.464-113.73-12.942-233.276-56.85-233.276-253.032 0-55.898 20.004-101.574 52.76-137.428-5.316-12.9-22.854-64.972 4.952-135.5 0 0 43.006-13.752 140.84 52.49 40.836-11.348 84.636-17.036 128.154-17.234 43.502 0.198 87.336 5.886 128.256 17.234 97.734-66.244 140.656-52.49 140.656-52.49 27.872 70.528 10.35 122.6 5.036 135.5 32.82 35.856 52.694 81.532 52.694 137.428 0 196.654-119.778 239.95-233.79 252.624 18.364 15.89 34.724 47.046 34.724 94.812 0 68.508-0.596 123.644-0.596 140.508 0 13.628 9.222 29.594 35.172 24.566 203.322-67.776 349.842-259.626 349.842-485.768 0-282.78-229.234-511.998-511.992-511.998z"></path>
</symbol>
<symbol id="icon-stackoverflow" viewBox="0 0 1024 1024">
<title>stackoverflow</title>
<path class="path1" d="M1024 640v384h-1024v-384h128v256h768v-256zM192 704h640v128h-640zM207.152 565.466l27.698-124.964 624.832 138.496-27.698 124.964zM279.658 308.558l54.092-116.006 580.032 270.464-54.092 116.006zM991.722 361.476l-77.922 101.55-507.746-389.608 56.336-73.418h58.244z"></path>
</symbol>
<symbol id="icon-xing" viewBox="0 0 1024 1024">
<title>xing</title>
<path class="path1" d="M928 0h-832c-52.8 0-96 43.2-96 96v832c0 52.8 43.2 96 96 96h832c52.8 0 96-43.2 96-96v-832c0-52.8-43.2-96-96-96zM312.6 666h-110.6c-6.6 0-11.6-3-14.4-7.6-3-4.8-3-10.8 0-17l117.6-207.6c0.2-0.2 0.2-0.4 0-0.6l-74.8-129.6c-3-6.2-3.6-12.2-0.6-17 2.8-4.6 8.4-7 15.2-7h110.8c17 0 25.4 11 30.8 20.8 0 0 75.6 132 76.2 132.8-4.4 8-119.6 211.4-119.6 211.4-6 10.4-14 21.4-30.6 21.4zM836.4 152.2l-245.2 433.6c-0.2 0.2-0.2 0.6 0 0.8l156.2 285.2c3 6.2 3.2 12.4 0.2 17.2-2.8 4.6-8 7-14.8 7h-110.6c-17 0-25.4-11.2-31-21 0 0-157-288-157.4-288.8 7.8-13.8 246.4-437 246.4-437 6-10.6 13.2-21 29.6-21h112.2c6.6 0 12 2.6 14.8 7 2.8 4.6 2.8 10.8-0.4 17z"></path>
</symbol>
<symbol id="icon-xing2" viewBox="0 0 1024 1024">
<title>xing2</title>
<path class="path1" d="M155.6 202.2c-8.8 0-16.4 3.2-20.2 9.2-3.8 6.4-3.2 14.4 0.8 22.6l99.8 172.8c0.2 0.4 0.2 0.6 0 0.8l-156.8 277.2c-4 8.2-3.8 16.4 0 22.6 3.8 6 10.4 10 19.2 10h147.6c22 0 32.8-15 40.2-28.6 0 0 153.4-271.4 159.4-282-0.6-1-101.6-177-101.6-177-7.4-13-18.4-27.6-41.2-27.6h-147.2z"></path>
<path class="path2" d="M776 0c-22 0-31.6 13.8-39.6 28.2 0 0-318.2 564.2-328.6 582.8 0.6 1 209.8 385 209.8 385 7.4 13 18.6 28.2 41.2 28.2h147.6c8.8 0 15.8-3.4 19.6-9.4 4-6.4 3.8-14.6-0.4-22.8l-208-380.6c-0.2-0.4-0.2-0.6 0-1l327-578.2c4-8.2 4.2-16.4 0.4-22.8-3.8-6-10.8-9.4-19.6-9.4h-149.4z"></path>
</symbol>
<symbol id="icon-chrome" viewBox="0 0 1024 1024">
<title>chrome</title>
<path class="path1" d="M258.278 446.542l-146.532-253.802c93.818-117.464 238.234-192.74 400.254-192.74 187.432 0 351.31 100.736 440.532 251h-417.77c-7.504-0.65-15.092-1-22.762-1-121.874 0-224.578 83.644-253.722 196.542zM695.306 325h293.46c22.74 57.93 35.234 121.004 35.234 187 0 280.826-226.1 508.804-506.186 511.926l209.394-362.678c29.48-42.378 46.792-93.826 46.792-149.248 0-73.17-30.164-139.42-78.694-187zM326 512c0-102.56 83.44-186 186-186s186 83.44 186 186c0 102.56-83.44 186-186 186s-186-83.44-186-186zM582.182 764.442l-146.578 253.878c-246.532-36.884-435.604-249.516-435.604-506.32 0-91.218 23.884-176.846 65.696-251.024l209.030 362.054c41.868 89.112 132.476 150.97 237.274 150.97 24.3 0 47.836-3.34 70.182-9.558z"></path>
</symbol>
<symbol id="icon-firefox" viewBox="0 0 1024 1024">
<title>firefox</title>
<path class="path1" d="M1022.526 334.14l-11.86 76.080c0 0-16.954-140.856-37.732-193.514-31.846-80.688-46.014-80.040-46.108-79.922 21.33 54.204 17.462 83.324 17.462 83.324s-37.792-102.998-137.712-135.768c-110.686-36.282-170.57-26.364-177.488-24.486-1.050-0.008-2.064-0.010-3.030-0.010 0.818 0.062 1.612 0.146 2.426 0.212-0.034 0.020-0.090 0.042-0.082 0.052 0.45 0.548 122.306 21.302 143.916 50.996 0 0-51.76 0-103.272 14.842-2.328 0.666 189.524 23.964 228.746 215.674 0 0-21.030-43.876-47.040-51.328 17.106 52.036 12.714 150.776-3.576 199.85-2.096 6.312-4.24-27.282-36.328-41.75 10.28 73.646-0.616 190.456-51.708 222.632-3.982 2.504 32.030-115.31 7.242-69.762-142.708 218.802-311.404 100.972-387.248 49.11 38.866 8.462 112.654-1.318 145.314-25.612 0.042-0.030 0.078-0.056 0.118-0.086 35.468-24.252 56.472-41.964 75.334-37.772 18.874 4.214 31.438-14.726 16.78-31.53-14.676-16.838-50.314-39.978-98.524-27.366-34 8.904-76.134 46.522-140.448 8.432-49.364-29.25-54.012-53.546-54.45-70.376 1.218-5.966 2.754-11.536 4.576-16.624 5.682-15.87 22.912-20.658 32.494-24.438 16.256 2.792 30.262 7.862 44.968 15.406 0.19-4.894 0.252-11.39-0.018-18.76 1.41-2.802 0.538-11.252-1.722-21.58-1.302-10.308-3.42-20.974-6.752-30.692 0.012-0.002 0.020-0.010 0.030-0.014 0.056-0.018 0.108-0.040 0.156-0.070 0.078-0.044 0.146-0.112 0.208-0.19 0.012-0.020 0.030-0.034 0.044-0.052 0.082-0.124 0.154-0.272 0.198-0.466 1.020-4.618 12.022-13.524 25.718-23.1 12.272-8.58 26.702-17.696 38.068-24.752 10.060-6.248 17.72-10.882 19.346-12.098 0.618-0.466 1.358-1.012 2.164-1.636 0.15-0.116 0.3-0.232 0.454-0.354 0.094-0.074 0.19-0.148 0.286-0.226 5.41-4.308 13.484-12.448 15.178-29.578 0.004-0.042 0.010-0.080 0.012-0.122 0.050-0.504 0.092-1.014 0.13-1.534 0.028-0.362 0.050-0.726 0.072-1.096 0.014-0.284 0.032-0.566 0.044-0.856 0.030-0.674 0.050-1.364 0.060-2.064 0-0.040 0.002-0.076 0.004-0.116 0.022-1.658-0.006-3.386-0.104-5.202-0.054-1.014-0.126-1.93-0.298-2.762-0.008-0.044-0.018-0.092-0.028-0.136-0.018-0.082-0.036-0.164-0.058-0.244-0.036-0.146-0.076-0.292-0.122-0.43-0.006-0.018-0.010-0.032-0.016-0.046-0.052-0.16-0.112-0.314-0.174-0.464-0.004-0.006-0.004-0.010-0.006-0.016-1.754-4.108-8.32-5.658-35.442-6.118-0.026-0.002-0.050-0.002-0.076-0.002v0c-11.066-0.188-25.538-0.194-44.502-0.118-33.25 0.134-51.628-32.504-57.494-45.132 8.040-44.46 31.276-76.142 69.45-97.626 0.722-0.406 0.58-0.742-0.274-0.978 7.464-4.514-90.246-0.124-135.186 57.036-39.888-9.914-74.654-9.246-104.616-2.214-5.754-0.162-12.924-0.88-21.434-2.652-19.924-18.056-48.448-51.402-49.976-91.208 0 0-0.092 0.072-0.252 0.204-0.020-0.382-0.056-0.76-0.072-1.142 0 0-60.716 46.664-51.628 173.882-0.022 2.036-0.064 3.986-0.12 5.874-16.432 22.288-24.586 41.020-25.192 45.156-14.56 29.644-29.334 74.254-41.356 141.98 0 0 8.408-26.666 25.284-56.866-12.412 38.022-22.164 97.156-16.436 185.856 0 0 1.514-19.666 6.874-47.994 4.186 55.010 22.518 122.924 68.858 202.788 88.948 153.32 225.67 230.74 376.792 242.616 26.836 2.212 54.050 2.264 81.424 0.186 2.516-0.178 5.032-0.364 7.55-0.574 30.964-2.174 62.134-6.852 93.238-14.366 425.172-102.798 378.942-616.198 378.942-616.198z"></path>
</symbol>
<symbol id="icon-IE" viewBox="0 0 1024 1024">
<title>IE</title>
<path class="path1" d="M734.202 628.83h236.050c1.82-16.37 2.548-33.098 2.548-50.196 0-80.224-21.534-155.468-59.124-220.266 38.88-103.308 37.492-190.988-14.556-243.39-49.496-49.28-182.29-41.28-332.412 25.198-11.104-0.84-22.318-1.272-33.638-1.272-206.048 0-378.926 141.794-426.708 332.85 64.638-82.754 132.638-142.754 223.478-186.448-8.26 7.74-56.454 55.652-64.56 63.764-239.548 239.478-315.090 552.306-233.806 633.604 61.786 61.774 173.758 51.342 302.376-11.648 59.806 30.458 127.5 47.63 199.218 47.63 193.134 0 356.804-124.316 416.090-297.448h-237.868c-32.734 60.382-96.748 101.48-170.218 101.48-73.468 0-137.484-41.098-170.216-101.48-14.55-27.274-22.914-58.554-22.914-91.656v-0.722h386.26zM348.302 512.804c5.456-97.11 86.2-174.584 184.766-174.584s179.312 77.472 184.766 174.584h-369.532zM896.966 163.808c33.526 33.88 32.688 96.214 4.012 174.022-49.136-74.908-120.518-133.936-204.792-167.64 90.106-38.638 163.406-43.756 200.78-6.382zM93.482 967.256c-42.782-42.796-29.884-132.618 25.23-240.832 34.308 96.27 101.156 177.090 187.336 229.154-95.43 43.318-173.536 50.674-212.566 11.678z"></path>
</symbol>
<symbol id="icon-edge" viewBox="0 0 1024 1024">
<title>edge</title>
<path class="path1" d="M15.4 454.6c30-236.8 191.6-451.6 481.2-454.6 174.8 3.4 318.6 82.6 404.2 233.6 43 78.8 56.4 161.6 59.2 253v107.4h-642.6c3 265 390 256 556.6 139.2v215.8c-97.6 58.6-319 111-490.4 43.6-146-54.8-250-207.6-249.4-354.6-4.8-190.6 94.8-316.8 249.4-388.6-32.8 40.6-57.8 85.4-70.8 163h362.8c0 0 21.2-216.8-205.4-216.8-213.6 7.4-367.6 131.6-454.8 259v0z"></path>
</symbol>
<symbol id="icon-safari" viewBox="0 0 1024 1024">
<title>safari</title>
<path class="path1" d="M512 0c-282.8 0-512 229.2-512 512s229.2 512 512 512 512-229.2 512-512-229.2-512-512-512zM958.4 472.8l-1-10.6c0.2 3.6 0.6 7 1 10.6zM888.4 268.8l-7.2-10.8c2.4 3.6 4.8 7.2 7.2 10.8zM860.6 230.6l-4.4-5.4c1.6 1.8 3 3.6 4.4 5.4zM798.6 167.6l-5.4-4.4c2 1.6 3.6 3 5.4 4.4zM766 142.8l-10.8-7.2c3.6 2.4 7.2 4.8 10.8 7.2zM561.8 66.8l-10.8-1c3.6 0.2 7.2 0.6 10.8 1zM472.8 65.6l-10.8 1c3.6-0.2 7.2-0.6 10.8-1zM268.8 135.6l-10.8 7.2c3.6-2.4 7.2-4.8 10.8-7.2zM230.6 163.4l-5.2 4.2c1.8-1.4 3.4-2.8 5.2-4.2zM167.6 225.4l-4.4 5.4c1.6-1.8 3-3.6 4.4-5.4zM142.8 258l-7.2 10.8c2.4-3.6 4.8-7.2 7.2-10.8zM66.8 462.2l-1 10.8c0.2-3.6 0.6-7.2 1-10.8zM65.6 551.2l1 10.8c-0.2-3.6-0.6-7.2-1-10.8zM135.6 755l7.2 10.8c-2.4-3.4-4.8-7-7.2-10.8zM144 767.6l79.8-53.4-8.8-13.4-79.8 53.4c-36.2-56.2-60-120.8-68-190.4l47.8-4.8-1.6-16-47.8 4.8c-0.8-9.2-1.2-18.6-1.4-28h96v-16h-96c0.2-9.4 0.6-18.6 1.4-28l47.8 4.6 1.6-16-47.8-4.6c8-69.6 32-134.2 68.2-190.4l79.8 53.4 8.8-13.4-80-53c5.4-7.6 10.8-15.2 16.6-22.4l37 30.4 10.2-12.4-37-30.4c6-7.2 12.4-14 18.8-20.8l67.8 67.8 11.4-11.4-67.8-67.8c6.8-6.4 13.6-12.8 20.6-18.8l30.4 37.2 12.4-10.2-30.4-37c7.4-5.8 14.8-11.4 22.4-16.8l53.4 79.8 13.4-8.8-53.4-79.8c56.2-36.2 120.8-60 190.4-68l4.8 47.8 16-1.6-4.8-47.8c9.2-0.8 18.6-1.2 28-1.4v96h16v-96c9.4 0.2 18.6 0.6 28 1.4l-4.6 47.8 16 1.6 4.6-47.8c69.6 8 134.2 32 190.4 68.2l-53.4 79.8 13.4 8.8 53.4-79.8c7.6 5.4 15.2 10.8 22.4 16.6l-30.4 37 12.4 10.2 30.4-37c7.2 6 14 12.4 20.8 18.8l-25.6 25-350 233.4-233.4 350-25 25c-6.4-6.8-12.8-13.6-18.8-20.6l37-30.4-10.2-12.4-37 30.4c-5.8-7.2-11.2-14.8-16.6-22.4zM167.6 798.6c-1.4-1.8-2.8-3.4-4.2-5.2l4.2 5.2zM225.4 856.4l5.2 4.2c-1.8-1.4-3.4-2.8-5.2-4.2zM258 881l10.8 7.2c-3.6-2.2-7.2-4.6-10.8-7.2zM462.2 957.2l10.8 1c-3.6-0.2-7.2-0.6-10.8-1zM551.2 958.4l10.6-1c-3.6 0.2-7 0.6-10.6 1zM755.2 888.4l10.8-7.2c-3.6 2.4-7.2 4.8-10.8 7.2zM793.4 860.6l5.4-4.4c-1.8 1.6-3.6 3-5.4 4.4zM828.4 829.2l0.8-0.8c-0.2 0.2-0.6 0.6-0.8 0.8zM856.4 798.6l4.4-5.4c-1.6 1.8-3 3.6-4.4 5.4zM863.4 790l-37-30.4-10.2 12.4 37 30.4c-6 7.2-12.4 14-18.8 20.8l-67.8-67.8-11.4 11.4 67.8 67.8c-6.8 6.4-13.6 12.8-20.6 18.8l-30.4-37.2-12.4 10.2 30.4 37c-7.4 5.8-14.8 11.4-22.4 16.8l-53.4-79.8-13.4 8.8 53.4 79.8c-56.2 36.2-120.8 60-190.4 68l-4.8-47.8-16 1.6 4.8 47.8c-9.2 0.8-18.6 1.2-28 1.4v-96h-16v96c-9.4-0.2-18.6-0.6-28-1.4l4.6-47.8-16-1.6-4.6 47.8c-69.6-8-134.2-32-190.4-68.2l53.4-79.8-13.4-8.8-53 79.8c-7.6-5.4-15.2-10.8-22.4-16.6l30.4-37-12.4-10.2-30.4 37c-7.2-6-14-12.4-20.8-18.8l25.2-25 350-233.4 233.4-350 25-25c6.4 6.8 12.8 13.6 18.8 20.6l-37 30.4 10.2 12.4 37-30.4c5.8 7.4 11.4 14.8 16.8 22.4l-79.8 53.4 8.8 13.4 79.8-53.4c36.2 56.2 60 120.8 68 190.4l-47.8 4.8 1.6 16 47.8-4.8c0.8 9.2 1.2 18.6 1.4 28h-96v16h96c-0.2 9.4-0.6 18.6-1.4 28l-47.8-4.6-1.6 16 47.8 4.6c-8 69.6-32 134.2-68.2 190.4l-79.8-53.4-8.8 13.4 79.8 53.4c-5.2 7.2-10.8 14.6-16.6 22zM958.4 551c-0.4 3.6-0.6 7.2-1 10.8l1-10.8zM888.4 755.2c-2.4 3.6-4.8 7.2-7.2 10.8l7.2-10.8z"></path>
<path class="path2" d="M432.535 71.075l18.73 94.157-15.693 3.122-18.73-94.157 15.693-3.122z"></path>
<path class="path3" d="M591.656 952.95l-18.73-94.157 15.693-3.122 18.73 94.157-15.693 3.122z"></path>
<path class="path4" d="M389.628 80.89l13.939 45.931-15.31 4.646-13.939-45.931 15.31-4.646z"></path>
<path class="path5" d="M634.434 942.887l-13.939-45.931 15.31-4.646 13.939 45.931-15.31 4.646z"></path>
<path class="path6" d="M348.014 95.099l36.739 88.694-14.782 6.123-36.739-88.694 14.782-6.123z"></path>
<path class="path7" d="M676.123 928.965l-36.739-88.694 14.782-6.123 36.739 88.694-14.782 6.123z"></path>
<path class="path8" d="M293.62 120.659l14.11-7.544 22.632 42.331-14.11 7.544-22.632-42.331z"></path>
<path class="path9" d="M730.101 903.289l-14.11 7.544-22.632-42.331 14.11-7.544 22.632 42.331z"></path>
<path class="path10" d="M120.601 293.826l42.336 22.622-7.541 14.112-42.336-22.622 7.541-14.112z"></path>
<path class="path11" d="M903.244 730.195l-42.336-22.622 7.541-14.112 42.336 22.622-7.541 14.112z"></path>
<path class="path12" d="M183.811 384.623l-88.694-36.739 6.123-14.782 88.694 36.739-6.123 14.782z"></path>
<path class="path13" d="M840.32 639.301l88.694 36.739-6.123 14.782-88.694-36.739 6.123-14.782z"></path>
<path class="path14" d="M85.543 374.387l45.936 13.93-4.643 15.312-45.936-13.93 4.643-15.312z"></path>
<path class="path15" d="M938.308 649.667l-45.936-13.93 4.643-15.312 45.936 13.93-4.643 15.312z"></path>
<path class="path16" d="M74.069 416.782l94.157 18.73-3.122 15.693-94.157-18.73 3.122-15.693z"></path>
<path class="path17" d="M949.741 607.243l-94.157-18.73 3.122-15.693 94.157 18.73-3.122 15.693z"></path>
<path class="path18" d="M70.965 591.548l94.157-18.73 3.122 15.693-94.157 18.73-3.122-15.693z"></path>
<path class="path19" d="M952.842 432.427l-94.157 18.73-3.122-15.693 94.157-18.73 3.122 15.693z"></path>
<path class="path20" d="M80.974 634.514l45.931-13.939 4.646 15.31-45.931 13.939-4.646-15.31z"></path>
<path class="path21" d="M942.969 389.707l-45.931 13.939-4.646-15.31 45.931-13.939 4.646 15.31z"></path>
<path class="path22" d="M101.142 690.912l-6.123-14.782 88.694-36.739 6.123 14.782-88.694 36.739z"></path>
<path class="path23" d="M922.794 333.231l6.122 14.782-88.694 36.73-6.122-14.782 88.694-36.73z"></path>
<path class="path24" d="M120.824 730.267l-7.544-14.11 42.331-22.632 7.544 14.11-42.331 22.632z"></path>
<path class="path25" d="M903.455 293.785l7.544 14.11-42.331 22.632-7.544-14.11 42.331-22.632z"></path>
<path class="path26" d="M307.878 910.846l-14.11-7.542 22.627-42.331 14.11 7.542-22.627 42.331z"></path>
<path class="path27" d="M716.073 113.074l14.112 7.541-22.622 42.336-14.112-7.541 22.622-42.336z"></path>
<path class="path28" d="M333.267 922.799l36.739-88.694 14.782 6.123-36.739 88.694-14.782-6.123z"></path>
<path class="path29" d="M690.884 101.11l-36.739 88.694-14.782-6.123 36.739-88.694 14.782 6.123z"></path>
<path class="path30" d="M389.634 943.028l-15.31-4.645 13.934-45.931 15.31 4.645-13.934 45.931z"></path>
<path class="path31" d="M634.349 80.882l15.312 4.642-13.925 45.936-15.312-4.642 13.925-45.936z"></path>
<path class="path32" d="M432.472 952.839l-15.693-3.122 18.73-94.157 15.693 3.122-18.73 94.157z"></path>
<path class="path33" d="M591.536 70.969l15.693 3.122-18.73 94.157-15.693-3.122 18.73-94.157z"></path>
</symbol>
<symbol id="icon-opera" viewBox="0 0 1024 1024">
<title>opera</title>
<path class="path1" d="M1024 512v0 0c0 151.6-66 288-170.8 381.6-131.4 64-253.8 19.2-294.2-8.8 129-28.2 226.4-184.2 226.4-372.8s-97.4-344.6-226.4-373c40.6-28 163-72.8 294.2-8.8 104.8 93.8 170.8 230.2 170.8 381.8v0 0z"></path>
<path class="path2" d="M343.4 223.4c-56.6 66.8-93.2 165.6-95.6 276.6 0 0.2 0 23.8 0 24.2 2.4 110.8 39.2 209.6 95.8 276.4 73.4 95.4 182.6 155.8 304.6 155.8 75 0 145.2-22.8 205.2-62.6-90.8 81-210.4 130.2-341.4 130.2-8.2 0-16.4-0.2-24.4-0.6-271.4-12.8-487.6-236.8-487.6-511.4 0-282.8 229.2-512 512-512 0.6 0 1.2 0 2 0 130.4 0.4 249.2 49.6 339.4 130.4-60-39.8-130.2-62.8-205.2-62.8-122 0-231.2 60.4-304.8 155.8z"></path>
</symbol>
<symbol id="icon-html-five" viewBox="0 0 1024 1024">
<title>html-five</title>
<path class="path1" d="M60.538 0l82.144 921.63 368.756 102.37 369.724-102.524 82.3-921.476h-902.924zM784.63 301.428h-432.54l10.302 115.75h411.968l-31.042 347.010-231.844 64.254-231.572-64.254-15.83-177.512h113.494l8.048 90.232 125.862 33.916 0.278-0.078 125.934-33.992 13.070-146.55h-391.74l-30.494-341.8h566.214l-10.108 113.024z"></path>
</symbol>
<symbol id="icon-html-five2" viewBox="0 0 1024 1024">
<title>html-five2</title>
<path class="path1" d="M60.538 0l82.144 921.63 368.756 102.37 369.724-102.524 82.3-921.476h-902.924zM810.762 862.824l-297.226 82.376v0.466l-0.776-0.234-0.782 0.234v-0.466l-297.222-82.376-70.242-787.486h736.496l-70.248 787.486zM650.754 530.204l-13.070 146.552-126.21 34.070-125.862-33.916-8.050-90.234h-113.49l15.83 177.512 232.076 64.176 231.342-64.176 31.040-347.012h-411.966l-10.302-115.748h432.534l10.112-113.026h-566.218l30.498 341.802z"></path>
</symbol>
<symbol id="icon-git" viewBox="0 0 1024 1024">
<title>git</title>
<path class="path1" d="M1004.692 466.394l-447.096-447.080c-25.738-25.754-67.496-25.754-93.268 0l-103.882 103.876 78.17 78.17c12.532-5.996 26.564-9.36 41.384-9.36 53.020 0 96 42.98 96 96 0 14.82-3.364 28.854-9.362 41.386l127.976 127.974c12.532-5.996 26.566-9.36 41.386-9.36 53.020 0 96 42.98 96 96s-42.98 96-96 96-96-42.98-96-96c0-14.82 3.364-28.854 9.362-41.386l-127.976-127.974c-3.042 1.456-6.176 2.742-9.384 3.876v266.968c37.282 13.182 64 48.718 64 90.516 0 53.020-42.98 96-96 96s-96-42.98-96-96c0-41.796 26.718-77.334 64-90.516v-266.968c-37.282-13.18-64-48.72-64-90.516 0-14.82 3.364-28.852 9.36-41.384l-78.17-78.17-295.892 295.876c-25.75 25.776-25.75 67.534 0 93.288l447.12 447.080c25.738 25.75 67.484 25.75 93.268 0l445.006-445.006c25.758-25.762 25.758-67.54-0.002-93.29z"></path>
</symbol>
</defs>
</svg>
